<svg width="19" height="23" viewBox="0 0 19 23" fill="none" xmlns="http://www.w3.org/2000/svg">
<path d="M10.7938 0C12.3863 0 13.7989 0.402802 15.0318 1.20841C16.2646 1.98716 17.2278 3.115 17.9213 4.59194C18.6404 6.06889 19 7.81436 19 9.82837V22.0736C19 22.3421 18.9229 22.5703 18.7688 22.7583C18.6147 22.9194 18.4093 23 18.1524 23H8.21257C7.95573 23 7.73741 22.9194 7.55762 22.7583C7.40351 22.5703 7.32646 22.3421 7.32646 22.0736V20.8249C7.32646 20.5563 7.40351 20.3415 7.55762 20.1804C7.73741 19.9924 7.95573 19.8984 8.21257 19.8984H15.6482V10.0701C15.6482 8.70053 15.417 7.49212 14.9547 6.44483C14.5181 5.39755 13.9017 4.59194 13.1054 4.02802C12.3092 3.43724 11.4103 3.14186 10.4086 3.14186H6.28625L3.3197 22.0333C3.29402 22.3018 3.19128 22.5301 3.01149 22.718C2.8317 22.906 2.61338 23 2.35654 23H0.776952C0.520108 23 0.314633 22.906 0.160527 22.718C0.0321054 22.5301 -0.0192633 22.3018 0.00642111 22.0333L3.08854 3.18214H1.12369C0.866847 3.18214 0.64853 3.10158 0.468739 2.94046C0.314633 2.75248 0.23758 2.52423 0.23758 2.25569V0.926445C0.23758 0.65791 0.314633 0.443083 0.468739 0.281963C0.64853 0.0939875 0.866847 0 1.12369 0H10.7938Z" fill="white"/>
</svg>
